<svg xmlns="http://www.w3.org/2000/svg" width="155" height="40" viewBox="0 0 155 40" fill="none">
  <path d="M15.3829 9.20482C20.2632 3.18073 28.1889 3.18073 33.0693 9.20482L10.971 36.4337C8.55036 39.4217 4.56799 39.4217 2.14734 36.4337C-0.273316 33.4458 -0.273316 28.5301 2.14734 25.5422L15.3829 9.20482Z" fill="#0F87F0"/>
  <path d="M40.3312 2.6506C42.7519 -0.337351 46.7342 -0.337351 49.1549 2.6506C51.5755 5.63855 51.5755 10.5542 49.1549 13.5422L35.9194 29.8795C31.039 35.9036 23.1133 35.9036 18.233 29.8795L40.3312 2.6506Z" fill="#FF5078"/>
  <path d="M57.5101 22.0723L56.2217 32.0482H53.1763L56.3388 7.56627H62.0781C64.9282 7.56627 66.6461 9.92772 66.6461 13.9759C66.6461 17.3494 65.3967 19.5663 63.5617 20.3855C64.1474 20.8675 65.3186 22.0723 64.8111 26.2169C64.4597 29.0602 64.1864 30.9398 64.3035 32.0482H61.3753C61.2972 30.988 61.4144 29.2048 61.8048 26.1687C62.1562 23.4699 61.8438 22.0723 60.204 22.0723H57.5101ZM58.0176 18.0723H60.5554C62.3124 18.0723 63.5227 17.0602 63.5227 14.4578C63.5227 12.5783 62.898 11.5663 61.3753 11.5663H58.8766L58.0176 18.0723Z" fill="white"/>
  <path d="M78.2809 21.2048C78.2809 25.5422 76.7192 32.3855 71.9559 32.3855C68.8325 32.3855 67.3879 29.253 67.3879 24.8193C67.3879 19.8554 69.301 13.3494 73.5957 13.3494C76.2897 13.3012 78.2809 15.8072 78.2809 21.2048ZM70.4723 24.8193C70.4723 27.3735 71.136 28.6265 72.2683 28.6265C74.3766 28.6265 75.2355 23.8072 75.2355 20.7229C75.2355 18.3615 74.6109 17.0602 73.4005 17.0602C71.3313 17.0602 70.4723 21.8313 70.4723 24.8193Z" fill="white"/>
  <path d="M82.6146 6.12048H85.5819L84.3325 15.7108C85.0353 14.3133 86.0894 13.3012 87.6121 13.3012C89.9547 13.3012 91.2431 16.241 91.2431 20.1928C91.2431 25.7831 89.33 32.3855 85.1915 32.3855C83.6298 32.3855 82.7708 31.4217 82.4194 30.3133C82.3413 30.8434 82.2242 31.6627 82.1461 32.0482H79.257C79.4131 30.8434 79.6474 29.2048 79.8816 27.3253L82.6146 6.12048ZM88.1587 20.7229C88.1587 18.4578 87.534 17.3012 86.2847 17.3012C84.762 17.3012 83.7078 19.1325 83.2784 22.988C82.8489 26.5542 83.3565 28.4819 84.9963 28.4819C87.2998 28.4337 88.1587 23.759 88.1587 20.7229Z" fill="white"/>
  <path d="M103.503 21.2048C103.503 25.5422 101.941 32.3855 97.1776 32.3855C94.0541 32.3855 92.6096 29.253 92.6096 24.8193C92.6096 19.8554 94.5227 13.3494 98.8174 13.3494C101.55 13.3012 103.503 15.8072 103.503 21.2048ZM95.6939 24.8193C95.6939 27.3735 96.3577 28.6265 97.4899 28.6265C99.5982 28.6265 100.457 23.8072 100.457 20.7229C100.457 18.3615 99.8325 17.0602 98.6222 17.0602C96.5529 17.0602 95.6939 21.8313 95.6939 24.8193Z" fill="white"/>
  <path d="M109.086 22.0723L107.797 32.0482H104.752L107.914 7.56627H113.615C116.465 7.56627 118.183 9.92772 118.183 13.9759C118.183 17.3494 116.933 19.5663 115.098 20.3855C115.684 20.8675 116.855 22.0723 116.348 26.2169C115.996 29.0602 115.723 30.9398 115.84 32.0482H112.912C112.834 30.988 112.951 29.2048 113.341 26.1687C113.693 23.4699 113.38 22.0723 111.741 22.0723H109.086ZM109.593 18.0723H112.131C113.888 18.0723 115.098 17.0602 115.098 14.4578C115.098 12.5783 114.474 11.5663 112.951 11.5663H110.452L109.593 18.0723Z" fill="white"/>
  <path d="M122.009 23.9518C121.97 24.3373 121.931 24.6265 121.931 25.0602C121.931 26.9879 122.36 28.6747 123.727 28.6747C124.937 28.6747 125.445 27.6145 125.835 26.4578H128.919C128.295 29.1566 126.85 32.3855 123.492 32.3855C120.447 32.3855 119.003 29.3012 119.003 24.8675C119.003 20.0482 120.642 13.3494 125.093 13.3494C128.412 13.3494 129.544 16.6747 129.544 20.3855C129.544 21.8795 129.427 22.9398 129.232 23.9518H122.009ZM126.655 20.7229C126.694 20.3855 126.694 20.1446 126.694 19.9036C126.694 18.3133 126.264 16.9157 124.976 16.9157C123.61 16.9157 122.79 18.3133 122.399 20.7229H126.655Z" fill="white"/>
  <path d="M132.16 18.3133C132.355 16.7711 132.55 15.1807 132.707 13.6386H135.596C135.557 14.1687 135.44 15.4699 135.361 15.9518C135.869 14.8434 136.884 13.3012 138.758 13.3012C140.984 13.3012 142.233 15.4699 141.53 20.9157L140.086 32H137.157L138.602 20.8675C138.875 18.7952 138.602 17.3494 137.314 17.3494C135.869 17.3494 134.971 19.1325 134.503 22.5542L133.292 32.0482H130.325L132.16 18.3133Z" fill="white"/>
  <path d="M144.146 13.6868H145.825L146.489 8.7229H149.417L148.792 13.6868H150.901L150.393 17.3494H148.285L147.113 26.6024C146.957 27.759 147.035 28.4819 147.933 28.4819C148.285 28.4819 148.558 28.4337 148.909 28.3856L148.441 31.8554C147.777 32.1928 147.074 32.1928 146.45 32.1928C144.107 32.1928 143.756 30.0241 144.146 26.7952L145.356 17.3494H143.678L144.146 13.6868Z" fill="white"/>
</svg>