<svg width="49.724121" height="46.188248" viewBox="0 0 49.7241 46.1882" fill="none" xmlns="http://www.w3.org/2000/svg" xmlns:xlink="http://www.w3.org/1999/xlink">
	<path id="Star 1" d="M21.0801 2.69775L17.8208 12.1636C17.2649 13.7779 15.7458 14.8614 14.0386 14.8614L4.00757 14.8614C0.0766602 14.8614 -1.49634 19.9377 1.74561 22.1605L9.45435 27.4456C10.9382 28.463 11.5603 30.3458 10.9746 32.0469L7.93726 40.868C6.68237 44.5128 10.802 47.6491 13.9812 45.4693L22.6001 39.5601C23.9634 38.6255 25.7607 38.6255 27.124 39.5601L35.7429 45.4693C38.9221 47.6491 43.0417 44.5128 41.7869 40.868L38.7495 32.0469C38.1638 30.3458 38.7859 28.463 40.2698 27.4456L47.9785 22.1605C51.2205 19.9377 49.6475 14.8614 45.7166 14.8614L35.6855 14.8614C33.9783 14.8614 32.4592 13.7779 31.9033 12.1636L28.644 2.69775C27.4055 -0.899261 22.3186 -0.899261 21.0801 2.69775Z" fill="#FFFFFF" fill-opacity="1.000000" fill-rule="evenodd"/>
</svg>
